<?xml version="1.0" encoding="utf-8"?>
<!-- Generator: Adobe Illustrator 17.0.0, SVG Export Plug-In . SVG Version: 6.00 Build 0)  -->
<!DOCTYPE svg PUBLIC "-//W3C//DTD SVG 1.1//EN" "http://www.w3.org/Graphics/SVG/1.1/DTD/svg11.dtd">
<svg version="1.1" id="Layer_1" xmlns="http://www.w3.org/2000/svg" xmlns:xlink="http://www.w3.org/1999/xlink" x="0px" y="0px"
	 width="640px" height="640px" viewBox="0 0 640 640" enable-background="new 0 0 640 640" xml:space="preserve">
<path d="M25,110h12.5c8.284,0,15,6.716,15,15v38.281C106.495,71.309,206.549,9.644,320.991,10.001
	C491.475,10.535,630.266,150.011,630,320.495C629.733,491.476,491.043,630,320,630c-79.908,0-152.753-30.234-207.722-79.885
	c-6.391-5.772-6.693-15.701-0.603-21.791l8.836-8.836c5.629-5.629,14.686-5.892,20.603-0.568
	C188.477,561.547,251.169,587.5,320,587.5c147.18,0,267.5-119.164,267.5-267.5c0-147.18-119.164-267.5-267.5-267.5
	c-103.577,0-193.421,58.846-237.861,145H125c8.284,0,15,6.716,15,15V225c0,8.284-6.716,15-15,15H25c-8.284,0-15-6.716-15-15V125
	C10,116.716,16.716,110,25,110z"/>
<g>
	<path d="M272.623,213.432v215.045h-45.441V255.032l-40.321,28.801l-24.641-30.721l64.642-48.321c8.64-6.08,14.081-8.64,23.681-8.64
		C266.862,196.151,272.623,205.432,272.623,213.432z"/>
	<path d="M473.584,378.235h-23.681v50.241h-42.881v-50.241H314.54c-8.96,0-15.04-10.561-15.04-20.801c0-5.439,1.6-10.88,4.48-15.04
		l101.442-137.603c5.44-7.36,15.681-8,21.44-8c11.521,0,23.041,5.12,23.041,17.601v126.723h23.681V378.235z M407.022,341.114
		v-76.161l-55.041,76.161H407.022z"/>
</g>
</svg>
